<?xml version="1.0" encoding="utf-8"?>
<!-- Generator: Adobe Illustrator 24.2.0, SVG Export Plug-In . SVG Version: 6.00 Build 0)  -->
<svg version="1.1" id="Capa_1" xmlns="http://www.w3.org/2000/svg" xmlns:xlink="http://www.w3.org/1999/xlink" x="0px" y="0px"
	 viewBox="0 0 512 512" style="enable-background:new 0 0 512 512;" xml:space="preserve">
<style type="text/css">
	.st0{fill:#DBD9F9;}
	.st1{fill:#B4B4EF;}
	.st2{fill:#9393E2;}
	.st3{fill:#8080D8;}
	.st4{fill:#FFFFFF;}
	.st5{fill:#4F26D1;}
</style>
<g id="Page-1">
	<g id="_x30_02---Phone" transform="translate(-1)">
		<path id="Shape" class="st0" d="M236.9,9.3C150.6,16.3,74.3,68,35.6,145.4S1.5,315,47.8,388.2c3,4.7,3.6,10.5,1.6,15.7l-33.2,82.9
			c-1.2,3.1-0.6,6.5,1.7,9c2.2,2.4,5.7,3.3,8.8,2.3l93.3-29.2c4.6-1.4,9.6-0.8,13.7,1.6c92.3,53,208.1,41.1,287.7-29.6
			s105-184.3,63.2-282.2S343,0.7,236.9,9.3L236.9,9.3z"/>
		<path id="Shape_1_" class="st1" d="M244.3,9c130.9,6.9,233.6,114.7,234.4,245.8S377.8,494.7,247,503c-0.6,0-1.1,0-1.7,0
			c9.1,0.5,18.2,0.5,27.3,0c135.1-9.5,237.4-125.8,229.7-261S379.6,3,244.3,9L244.3,9z"/>
		<path id="Shape_2_" class="st2" d="M221.4,291.6c-20.1-19.1-33.7-43.9-39.1-71.1c-0.9-5.4,0.9-10.9,4.8-14.7l19.6-19.6
			c5.7-5.6,6.7-14.4,2.5-21.2l-34.6-55.4c-4.7-7.5-14.2-10.1-22.1-6.2l-55.6,27.8c-6.4,3.2-10.2,10.1-9.3,17.2
			c4.1,34.2,20,109.3,93.9,183.2s149,89.7,183.2,93.9c7.1,0.8,14-2.9,17.2-9.3l27.8-55.6c3.9-7.9,1.2-17.4-6.2-22.1L348,303.8
			c-6.7-4.2-15.5-3.2-21.1,2.4l-19.6,19.6c-3.8,3.9-9.3,5.7-14.7,4.8C265.3,325.3,240.5,311.7,221.4,291.6L221.4,291.6z"/>
		<path id="Shape_3_" class="st3" d="M403.3,338.4L348,303.8c-6.7-4.2-15.5-3.2-21.1,2.4l-0.2,0.2l51.1,32
			c7.5,4.7,10.1,14.2,6.2,22.1l-27.8,55.6c-1.5,2.9-3.8,5.4-6.7,7c5.6,1,10.7,1.7,15.1,2.3c7.1,0.8,14-2.9,17.2-9.3l27.8-55.6
			C413.5,352.6,410.8,343.1,403.3,338.4L403.3,338.4z"/>
		<path id="Shape_4_" class="st4" d="M49.4,403.8l-33.2,83c-1.2,3.1-0.6,6.5,1.7,9c2.2,2.4,5.7,3.3,8.8,2.3l15.3-4.8
			c-0.9-2.1-1-4.4-0.1-6.5l33.2-83c2-5.2,1.4-11-1.6-15.7c-47.1-74.4-51-168.2-10.4-246.4S182.6,13,270.6,8.7
			c-92.5-5.1-180.1,42-227,121.8s-45.3,179.3,4.2,257.6C50.8,392.8,51.4,398.7,49.4,403.8L49.4,403.8z"/>
		<path id="Shape_5_" class="st4" d="M17.6,165.5l15.9,6.1c-7.6,20.6-12.5,42.1-14.6,64l-17-1.4C4.2,210.7,9.4,187.6,17.6,165.5
			L17.6,165.5z"/>
		<g>
			<path id="Shape_6_" class="st5" d="M212.8,192.2c8.5-8.4,10-21.6,3.6-31.7l-34.6-55.4c-7-11.2-21.4-15.3-33.2-9.3L93,123.6
				c-9.6,4.8-15.2,15.1-14,25.8c5.8,47.7,27.2,119.1,96.3,188.2s140.5,90.5,188.2,96.3c10.7,1.3,21.1-4.3,25.8-14l27.8-55.6
				c5.9-11.8,1.9-26.2-9.3-33.2l-55.4-34.6c-10.1-6.4-23.3-4.9-31.7,3.6l-19.6,19.6c-1.9,1.9-4.6,2.8-7.3,2.4
				c-25.4-5-48.7-17.8-66.4-36.7c-18.9-17.8-31.7-41-36.7-66.4c-0.4-2.7,0.5-5.4,2.4-7.3L212.8,192.2z M173.9,222
				c5.6,28.9,20.1,55.4,41.5,75.7c20.3,21.4,46.8,35.8,75.7,41.5c8.1,1.3,16.4-1.4,22.2-7.2l19.6-19.6c2.8-2.8,7.2-3.3,10.6-1.2
				l55.4,34.6c3.7,2.3,5.1,7.1,3.1,11.1l-27.8,55.6c-1.6,3.2-5,5.1-8.5,4.7c-45-5.5-112.5-25.7-178.2-91.4s-86-133.1-91.4-178.2
				c-0.4-3.5,1.5-7,4.7-8.5l55.6-27.8c1.2-0.6,2.5-0.9,3.8-0.9c2.9,0,5.7,1.5,7.2,4l34.6,55.3c2.1,3.4,1.6,7.7-1.2,10.6l-19.6,19.6
				C175.3,205.5,172.6,213.8,173.9,222L173.9,222z"/>
			<path id="Shape_7_" class="st5" d="M16,209.7c-4.7,0-8.6-3.8-8.6-8.5c0-4.7,3.8-8.6,8.5-8.6H16c4.7,0,8.5,3.8,8.5,8.5
				S20.7,209.7,16,209.7z"/>
			<path id="Shape_8_" class="st5" d="M41.5,400.7l-33.2,83c-2.4,6.1-1.2,13.1,3.3,17.9c4.5,4.8,11.3,6.7,17.6,4.7l93.3-29.2
				c2.3-0.7,4.8-0.4,6.9,0.9c38.8,22.4,82.8,34.1,127.6,34c5.3,0,10.7-0.2,16.1-0.5c91.8-5.8,173.4-60.5,213.8-143.1
				s33.3-180.6-18.5-256.6S328-6.6,236.3,0.9c-24,2.2-47.6,7.5-70.2,16c-22.5,8.6-43.7,20.4-62.8,35C84,66.2,66.9,83.3,52.5,102.6
				C38,121.9,26.3,143,17.6,165.5c-0.8,2.2-0.8,4.6,0.2,6.7c1,2.1,2.8,3.7,5,4.4c4.4,1.5,9.1-0.7,10.8-5.1
				c8.1-21,19.1-40.7,32.6-58.7c13.4-18.1,29.4-34.1,47.5-47.5c17.9-13.6,37.6-24.6,58.6-32.7c21-7.8,43-12.9,65.4-14.9
				C340,9.5,436.3,67.6,476.7,162.1s15.8,204.2-61,272.5S227.1,514.3,138,463.2c-6.2-3.6-13.6-4.5-20.5-2.4L24.1,490L57.3,407
				c3-7.7,2.2-16.4-2.3-23.4c-28-44.1-40.7-96.1-36.1-148.1c0.4-4.7-3.1-8.8-7.8-9.2s-8.8,3.1-9.2,7.8
				c-4.9,55.7,8.7,111.4,38.7,158.7C42.2,395.1,42.5,398,41.5,400.7L41.5,400.7z"/>
			<path id="Shape_9_" class="st5" d="M407.4,117c2.1,2.3,5.2,3.3,8.2,2.6c3-0.7,5.4-2.9,6.3-5.8s0.1-6.1-2-8.4
				C386.1,69,341.1,44.9,292.1,36.9c-4.5-0.5-8.6,2.7-9.3,7.1c-0.7,4.5,2.2,8.7,6.6,9.7C334.6,61.1,376.2,83.4,407.4,117z"/>
			<circle id="Oval" class="st5" cx="257" cy="42.7" r="8.5"/>
		</g>
	</g>
</g>
</svg>
