<?xml version="1.0" encoding="utf-8"?>
<!-- Generator: Adobe Illustrator 24.2.0, SVG Export Plug-In . SVG Version: 6.00 Build 0)  -->
<svg version="1.1" id="Capa_1" xmlns="http://www.w3.org/2000/svg" xmlns:xlink="http://www.w3.org/1999/xlink" x="0px" y="0px"
	 viewBox="0 0 512 512" style="enable-background:new 0 0 512 512;" xml:space="preserve">
<style type="text/css">
	.st0{fill:#DBD9F9;}
	.st1{fill:#B4B4EF;}
	.st2{fill:#9393E2;}
	.st3{fill:#FFFFFF;}
	.st4{fill:#4F26D1;}
</style>
<g id="Page-1">
	<g id="_x30_48---Chat-Location">
		<path id="Shape" class="st0" d="M466.8,363.6l31.9,95.7c1,2.9,0.3,6.1-1.8,8.4c-2.1,2.3-5.2,3.3-8.2,2.6L365.6,443
			c-34.6,14.7-71.9,22.2-109.6,22.1c-136.7,0-247.5-95.5-247.5-213.3S119.3,38.4,256,38.4s247.5,95.5,247.5,213.3
			C503.3,292,490.5,331.1,466.8,363.6L466.8,363.6z"/>
		<path id="Shape_1_" class="st1" d="M466.8,363.6c23.7-32.5,36.5-71.6,36.7-111.9c0-117.8-110.8-213.3-247.5-213.3
			c-4.3,0-8.6,0.1-12.8,0.3c130.7,5.7,234.7,98.9,234.7,213.1c-0.2,40.2-13,79.4-36.7,111.9l31.9,95.7c0.8,2.5,0.5,5.2-1,7.3
			l16.7,3.7c3,0.7,6.1-0.3,8.2-2.6c2.1-2.3,2.7-5.5,1.8-8.4L466.8,363.6z"/>
		<path id="Shape_2_" class="st2" d="M366.3,151.6L263.1,399.2c-1.4,3.4-4.8,5.5-8.4,5.2c-3.6-0.2-6.7-2.8-7.7-6.3l-29.7-108.8
			l-108.8-29.7c-3.5-1-6-4-6.3-7.7c-0.2-3.6,1.9-7,5.2-8.4l247.5-103.1c3.2-1.3,6.9-0.6,9.3,1.8
			C366.8,144.7,367.6,148.4,366.3,151.6L366.3,151.6z"/>
		<path id="Shape_3_" class="st3" d="M34.1,251.7c0-113.8,103.4-206.8,233.6-213c-3.9-0.2-7.8-0.3-11.8-0.3
			C119.3,38.4,8.5,133.9,8.5,251.7c0,128.1,126.4,219.2,260.6,213.2C144.9,459.2,34.1,371.7,34.1,251.7L34.1,251.7z"/>
		<path id="Shape_4_" class="st3" d="M29,315.4l-15.9,6.1C4.8,299.2,0.3,275.6,0,251.7h17.1C17.4,273.5,21.5,295,29,315.4L29,315.4z
			"/>
		<g>
			<path id="Shape_5_" class="st4" d="M12.1,294.2c-4.7,0-8.6-3.8-8.6-8.5c0-4.7,3.8-8.6,8.5-8.6h0.1c4.7,0,8.5,3.8,8.5,8.5
				S16.8,294.2,12.1,294.2z"/>
			<path id="Shape_6_" class="st4" d="M256,29.9C114.8,29.9,0,129.4,0,251.7c0,4.7,3.8,8.5,8.5,8.5s8.5-3.8,8.5-8.5
				C17.1,138.8,124.3,46.9,256,46.9s238.9,91.9,238.9,204.8c-0.2,38.4-12.5,75.8-35.1,106.9c-1.6,2.2-2,5.1-1.2,7.7l31.9,95.7
				l-123.2-27.4c-1.7-0.4-3.6-0.2-5.2,0.5c-33.6,14.3-69.7,21.6-106.2,21.4c-23.8-0.3-47.5-3.4-70.5-9.1
				c-22.9-6.3-44.9-15.5-65.4-27.4c-20.3-12.1-38.7-27.2-54.4-44.9c-15.8-17.5-28.2-37.7-36.6-59.7c-1.8-4.2-6.4-6.4-10.8-5
				c-2.2,0.7-4,2.3-5,4.4c-1,2.1-1,4.5-0.1,6.7c9.1,23.9,22.6,45.9,39.8,64.9c16.9,19,36.6,35.3,58.5,48.3
				c21.9,12.7,45.4,22.5,69.8,29.2c24.5,6.1,49.6,9.4,74.9,9.7c37.9,0.2,75.4-7.2,110.4-21.7l120.5,26.8c1.2,0.3,2.5,0.4,3.8,0.4
				c5.5,0,10.6-2.7,13.8-7.1c3.2-4.5,4-10.2,2.3-15.4L476.2,365c23.1-33.2,35.6-72.7,35.8-113.2C512,129.4,397.2,29.9,256,29.9
				L256,29.9z"/>
			<path id="Shape_7_" class="st4" d="M93.8,252.6c0.4,7.3,5.5,13.5,12.5,15.4l104,28.4l28.4,104c1.9,7.1,8.1,12.1,15.4,12.5h1.2
				c6.9,0,13.1-4.1,15.7-10.5l103.2-247.5c2.7-6.4,1.2-13.7-3.7-18.6s-12.2-6.3-18.6-3.7L104.3,235.7
				C97.5,238.5,93.3,245.3,93.8,252.6L93.8,252.6z M337.8,156.9l-54.1,54.1c-2.2,2.1-3.1,5.3-2.3,8.3c0.8,3,3.1,5.3,6.1,6.1
				c3,0.8,6.2-0.1,8.3-2.3l54-54l-94.5,226.9l-28.4-104l44.8-44.8c3.2-3.3,3.2-8.7-0.1-12c-3.3-3.3-8.6-3.3-12-0.1l-44.8,44.8
				l-104-28.4L337.8,156.9z"/>
			<path id="Shape_8_" class="st4" d="M212.5,67.6c-50.3,7.8-96.6,32.1-131.7,69c-2.2,2.2-2.9,5.5-2,8.4c0.9,3,3.3,5.2,6.4,5.9
				c3,0.6,6.2-0.4,8.2-2.7c32.5-34.1,75.4-56.5,122-63.7c3-0.5,5.5-2.6,6.6-5.5c1.1-2.9,0.5-6.1-1.5-8.4
				C218.5,68.2,215.5,67.1,212.5,67.6z"/>
			<circle id="Oval" class="st4" cx="247.5" cy="72.5" r="8.5"/>
		</g>
	</g>
</g>
</svg>
