<?xml version="1.0" encoding="utf-8"?>
<!-- Generator: Adobe Illustrator 24.2.0, SVG Export Plug-In . SVG Version: 6.00 Build 0)  -->
<svg version="1.1" id="Capa_1" xmlns="http://www.w3.org/2000/svg" xmlns:xlink="http://www.w3.org/1999/xlink" x="0px" y="0px"
	 viewBox="0 0 512 512" style="enable-background:new 0 0 512 512;" xml:space="preserve">
<style type="text/css">
	.st0{fill:#B4B4EF;}
	.st1{fill:#FFFFFF;}
	.st2{fill:#DBD9F9;}
	.st3{fill:#4F26D1;}
	.st4{font-family:'Avenir-Medium';}
	.st5{font-size:260px;}
</style>
<g>
	<g transform="translate(1 1)">
		<ellipse class="st0" cx="272.1" cy="255" rx="230.4" ry="247.5"/>
		<ellipse class="st1" cx="238" cy="255" rx="230.4" ry="247.5"/>
		<ellipse class="st2" cx="255" cy="255" rx="221.9" ry="247.5"/>
	</g>
	<g>
		<path class="st3" d="M256,0C128.4,0.4,20.4,94.4,2.4,220.7c-0.4,3,0.8,6,3.2,7.9s5.6,2.3,8.5,1.2s4.8-3.7,5.2-6.7
			C36.7,98.7,147.3,9,272.5,17.6S494.9,130.5,494.9,256s-97.2,229.7-222.4,238.4C147.3,503,36.7,413.3,19.3,289
			c-0.4-3-2.4-5.6-5.2-6.7s-6.1-0.7-8.5,1.2s-3.6,4.9-3.2,7.9c18.9,135.5,140.9,232.2,277.1,219.6S518,380.9,511.7,244.2
			C505.4,107.6,392.8,0,256,0z"/>
		<circle class="st3" cx="8.6" cy="256" r="8.5"/>
	</g>
</g>
<text transform="matrix(1 0 0 1 190.4981 356.4144)" class="st3 st4 st5">?</text>
<path id="Shape_9_" class="st3" d="M397.9,120.9c2.1,2.3,5.2,3.3,8.2,2.6c3-0.7,5.4-2.9,6.3-5.8s0.1-6.1-2-8.4
	c-33.8-36.4-78.8-60.5-127.9-68.5c-4.5-0.5-8.6,2.7-9.3,7.1c-0.7,4.5,2.2,8.7,6.6,9.7C325.1,65.1,366.7,87.3,397.9,120.9z"/>
<circle id="Oval" class="st3" cx="247.5" cy="46.6" r="8.5"/>
</svg>
