<svg id="Capa_1" data-name="Capa 1" xmlns="http://www.w3.org/2000/svg" xmlns:xlink="http://www.w3.org/1999/xlink" viewBox="0 0 1197.59 383.09"><defs><style>.cls-1{fill:none;}.cls-2{clip-path:url(#clip-path);}.cls-3{fill:#4a8cff;}.cls-4{clip-path:url(#clip-path-2);}.cls-5{clip-path:url(#clip-path-3);}.cls-6{clip-path:url(#clip-path-4);}.cls-7{fill:#fff;}.cls-8{fill:#90908f;}</style><clipPath id="clip-path" transform="translate(1.59 317.5)"><rect class="cls-1" x="-400" y="-706" width="2000" height="1124"/></clipPath><clipPath id="clip-path-2" transform="translate(1.59 317.5)"><rect class="cls-1" x="-64.31" y="-56.16" width="313.73" height="176.31"/></clipPath><clipPath id="clip-path-3" transform="translate(1.59 317.5)"><circle class="cls-1" cx="32" cy="32" r="31.86"/></clipPath><clipPath id="clip-path-4" transform="translate(1.59 317.5)"><path class="cls-1" d="M41.7,27.86l9-6.58c.79-.64,1.39-.49,1.39.7V42c0,1.33-.75,1.18-1.39.7l-9-6.58ZM11.22,22V37a6.12,6.12,0,0,0,6.16,6.09H39.19A1.11,1.11,0,0,0,40.31,42V27a6.12,6.12,0,0,0-6.15-6.09H12.34A1.12,1.12,0,0,0,11.22,22Z"/></clipPath></defs><g class="cls-2"><path class="cls-3" d="M464-234h732V-54H464Z" transform="translate(1.59 317.5)"/></g><g class="cls-4"><g class="cls-5"><path class="cls-3" d="M-1.59-1.59H65.59V65.59H-1.59Z" transform="translate(1.59 317.5)"/></g><g class="cls-6"><path class="cls-7" d="M9.49,19.19H53.82V44.81H9.49Z" transform="translate(1.59 317.5)"/></g></g><g class="cls-2"><path class="cls-8" d="M464-317.5H824v76.34H464Z" transform="translate(1.59 317.5)"/></g></svg>